<svg width="246" height="119" viewBox="0 0 246 119" fill="none" xmlns="http://www.w3.org/2000/svg">
<path d="M232.832 9.55279L232.549 10.5118L232.549 10.5118L232.832 9.55279ZM244.978 13.8785C245.463 13.6146 245.642 13.0074 245.379 12.5223L241.079 4.61591C240.815 4.13073 240.208 3.95133 239.722 4.21519C239.237 4.47906 239.058 5.08628 239.322 5.57145L243.144 12.5993L236.116 16.4215C235.631 16.6854 235.451 17.2926 235.715 17.7778C235.979 18.2629 236.586 18.4423 237.071 18.1785L244.978 13.8785ZM232.549 10.5118L244.217 13.959L244.783 12.041L233.116 8.59377L232.549 10.5118ZM1.91915 118.894C40.2156 29.5355 139.314 -17.0349 232.549 10.5118L233.116 8.59377C138.909 -19.2402 38.7767 27.8158 0.0808564 118.106L1.91915 118.894Z" fill="black"/>
</svg>
