<svg width="166" height="101" viewBox="0 0 166 101" fill="none" xmlns="http://www.w3.org/2000/svg">
<path d="M138.028 11.2771L138.188 12.2643L138.188 12.2643L138.028 11.2771ZM165.311 7.58527C165.634 7.13745 165.533 6.51239 165.085 6.18916L157.788 0.921751C157.34 0.598516 156.715 0.699508 156.392 1.14732C156.068 1.59514 156.169 2.2202 156.617 2.54343L163.104 7.22557L158.422 13.7123C158.099 14.1601 158.2 14.7852 158.647 15.1084C159.095 15.4316 159.72 15.3306 160.043 14.8828L165.311 7.58527ZM138.188 12.2643L164.66 7.9872L164.34 6.0128L137.869 10.2899L138.188 12.2643ZM1.83549 100.55C32.9045 53.312 82.3725 21.2825 138.188 12.2643L137.869 10.2899C81.5001 19.3975 31.5415 51.7446 0.164517 99.4506L1.83549 100.55Z" fill="black"/>
</svg>
