<svg width="64" height="49" viewBox="0 0 64 49" fill="none" xmlns="http://www.w3.org/2000/svg">
<path fill-rule="evenodd" clip-rule="evenodd" d="M23.9038 3.07812C47.197 -2.16377 65.9431 22.2823 54.8381 43.4182L54.2079 44.6177L52.2514 38.3292C52.0874 37.8019 51.5268 37.5074 50.9995 37.6714C50.4721 37.8355 50.1776 38.396 50.3417 38.9234L53.0154 47.5171C53.1795 48.0444 53.74 48.3389 54.2673 48.1748L62.861 45.5011C63.3884 45.3371 63.6829 44.7766 63.5188 44.2492C63.3547 43.7219 62.7942 43.4274 62.2669 43.5914L55.9784 45.5479L56.6086 44.3485C68.5068 21.7028 48.4217 -4.48939 23.4647 1.12691L20.0415 1.89726L20.2611 2.8729L19.9973 1.90826C15.052 3.26034 8.45985 7.22836 4.29016 14.5182C0.100782 21.8425 -1.57608 32.3993 3.1211 46.7855L5.02233 46.1647C0.467024 32.2131 2.16682 22.2586 6.02623 15.5112C9.89911 8.74028 16.0145 5.07697 20.5032 3.84338L23.9038 3.07812Z" fill="black"/>
</svg>
