<svg width="45" height="80" viewBox="0 0 45 80" fill="none" xmlns="http://www.w3.org/2000/svg">
<path d="M37 15.5685L36 15.5685L36 15.5685L37 15.5685ZM37.7071 0.79288C37.3166 0.402355 36.6834 0.402355 36.2929 0.792879L29.9289 7.15684C29.5384 7.54736 29.5384 8.18052 29.9289 8.57105C30.3195 8.96157 30.9526 8.96157 31.3432 8.57105L37 2.9142L42.6569 8.57106C43.0474 8.96158 43.6806 8.96158 44.0711 8.57106C44.4616 8.18054 44.4616 7.54737 44.0711 7.15685L37.7071 0.79288ZM38 15.5685L38 1.49999L36 1.49999L36 15.5685L38 15.5685ZM1.51273 79.8585C24.1423 66.3436 38 41.9266 38 15.5685L36 15.5685C36 41.2226 22.5124 64.9875 0.487252 78.1414L1.51273 79.8585Z" fill="black"/>
</svg>
