<svg width="38" height="53" viewBox="0 0 38 53" fill="none" xmlns="http://www.w3.org/2000/svg">
<g id="lockA">
<path id="shackle" d="M19.5 4C23.6421 4 27 7.35786 27 11.5V20.5C27 20.668 26.9945 20.8347 26.9836 21H27V27H31V11.5C31 5.14873 25.8513 0 19.5 0C13.1487 0 8 5.14873 8 11.5V17H12V11.5C12 7.35786 15.3579 4 19.5 4Z" fill="black"/>
<rect id="padlock" x="1.5" y="16.5" width="35" height="35" fill="#F0F8FF" stroke="black" stroke-width="3"/>
<g id="A">
<path d="M24.85 43C23.91 43 23.24 42.76 22.84 42.28C22.44 41.8 22.19 41.2 22.09 40.48H21.94C21.6 41.38 21.05 42.09 20.29 42.61C19.55 43.11 18.55 43.36 17.29 43.36C15.67 43.36 14.38 42.94 13.42 42.1C12.46 41.26 11.98 40.11 11.98 38.65C11.98 37.21 12.5 36.1 13.54 35.32C14.6 34.54 16.3 34.15 18.64 34.15H21.94V32.62C21.94 31.48 21.62 30.63 20.98 30.07C20.34 29.49 19.43 29.2 18.25 29.2C17.21 29.2 16.36 29.41 15.7 29.83C15.04 30.23 14.51 30.78 14.11 31.48L12.49 30.28C12.69 29.88 12.96 29.49 13.3 29.11C13.64 28.73 14.06 28.4 14.56 28.12C15.06 27.82 15.63 27.59 16.27 27.43C16.91 27.25 17.62 27.16 18.4 27.16C20.22 27.16 21.66 27.62 22.72 28.54C23.8 29.46 24.34 30.74 24.34 32.38V40.9H26.5V43H24.85ZM17.71 41.35C18.33 41.35 18.89 41.28 19.39 41.14C19.91 40.98 20.36 40.78 20.74 40.54C21.12 40.28 21.41 39.98 21.61 39.64C21.83 39.28 21.94 38.9 21.94 38.5V35.95H18.64C17.2 35.95 16.15 36.15 15.49 36.55C14.83 36.95 14.5 37.53 14.5 38.29V38.92C14.5 39.72 14.78 40.33 15.34 40.75C15.92 41.15 16.71 41.35 17.71 41.35Z" fill="black"/>
<path d="M22.84 42.28L23.6082 41.6398L23.6082 41.6398L22.84 42.28ZM22.09 40.48L23.0805 40.3424L22.9607 39.48H22.09V40.48ZM21.94 40.48V39.48H21.2488L21.0045 40.1266L21.94 40.48ZM20.29 42.61L20.8499 43.4386L20.8547 43.4353L20.29 42.61ZM13.42 42.1L14.0785 41.3474L14.0785 41.3474L13.42 42.1ZM13.54 35.32L12.9473 34.5145L12.94 34.52L13.54 35.32ZM21.94 34.15V35.15H22.94V34.15H21.94ZM20.98 30.07L20.3085 30.811L20.3149 30.8168L20.3215 30.8226L20.98 30.07ZM15.7 29.83L16.2183 30.6852L16.2277 30.6795L16.2369 30.6737L15.7 29.83ZM14.11 31.48L13.5148 32.2836L14.4196 32.9538L14.9782 31.9761L14.11 31.48ZM12.49 30.28L11.5956 29.8328L11.2201 30.5838L11.8948 31.0836L12.49 30.28ZM13.3 29.11L14.0452 29.7768L14.0452 29.7768L13.3 29.11ZM14.56 28.12L15.0486 28.9925L15.0617 28.9852L15.0745 28.9775L14.56 28.12ZM16.27 27.43L16.5125 28.4001L16.5267 28.3966L16.5407 28.3926L16.27 27.43ZM22.72 28.54L22.0645 29.2953L22.0715 29.3012L22.72 28.54ZM24.34 40.9H23.34V41.9H24.34V40.9ZM26.5 40.9H27.5V39.9H26.5V40.9ZM26.5 43V44H27.5V43H26.5ZM19.39 41.14L19.6596 42.103L19.6719 42.0995L19.6841 42.0958L19.39 41.14ZM20.74 40.54L21.274 41.3855L21.2895 41.3757L21.3047 41.3653L20.74 40.54ZM21.61 39.64L20.7567 39.1185L20.7523 39.1257L20.7481 39.133L21.61 39.64ZM21.94 35.95H22.94V34.95H21.94V35.95ZM15.49 36.55L16.0083 37.4052L16.0083 37.4052L15.49 36.55ZM15.34 40.75L14.74 41.55L14.7559 41.5619L14.7723 41.5732L15.34 40.75ZM24.85 42C24.0546 42 23.7386 41.7963 23.6082 41.6398L22.0718 42.9202C22.7414 43.7237 23.7654 44 24.85 44V42ZM23.6082 41.6398C23.3462 41.3254 23.1591 40.9082 23.0805 40.3424L21.0995 40.6176C21.2209 41.4918 21.5338 42.2746 22.0718 42.9202L23.6082 41.6398ZM22.09 39.48H21.94V41.48H22.09V39.48ZM21.0045 40.1266C20.7335 40.8441 20.3085 41.3857 19.7253 41.7847L20.8547 43.4353C21.7915 42.7943 22.4665 41.9159 22.8755 40.8334L21.0045 40.1266ZM19.7301 41.7814C19.2106 42.1325 18.4293 42.36 17.29 42.36V44.36C18.6707 44.36 19.8894 44.0875 20.8499 43.4386L19.7301 41.7814ZM17.29 42.36C15.8449 42.36 14.8112 41.9885 14.0785 41.3474L12.7615 42.8526C13.9488 43.8915 15.4951 44.36 17.29 44.36V42.36ZM14.0785 41.3474C13.3681 40.7258 12.98 39.8679 12.98 38.65H10.98C10.98 40.3521 11.5519 41.7942 12.7615 42.8526L14.0785 41.3474ZM12.98 38.65C12.98 37.4857 13.3815 36.6889 14.14 36.12L12.94 34.52C11.6185 35.5111 10.98 36.9343 10.98 38.65H12.98ZM14.1327 36.1254C14.9319 35.5373 16.3668 35.15 18.64 35.15V33.15C16.2332 33.15 14.2681 33.5427 12.9473 34.5146L14.1327 36.1254ZM18.64 35.15H21.94V33.15H18.64V35.15ZM22.94 34.15V32.62H20.94V34.15H22.94ZM22.94 32.62C22.94 31.2951 22.5628 30.1262 21.6385 29.3174L20.3215 30.8226C20.6772 31.1338 20.94 31.6649 20.94 32.62H22.94ZM21.6515 29.329C20.7694 28.5296 19.5865 28.2 18.25 28.2V30.2C19.2735 30.2 19.9106 30.4504 20.3085 30.811L21.6515 29.329ZM18.25 28.2C17.081 28.2 16.0284 28.4357 15.1631 28.9863L16.2369 30.6737C16.6916 30.3843 17.339 30.2 18.25 30.2V28.2ZM15.1817 28.9748C14.3699 29.4668 13.7221 30.1432 13.2418 30.9839L14.9782 31.9761C15.2979 31.4168 15.7101 30.9932 16.2183 30.6852L15.1817 28.9748ZM14.7052 30.6764L13.0852 29.4764L11.8948 31.0836L13.5148 32.2836L14.7052 30.6764ZM13.3844 30.7272C13.5396 30.4169 13.7564 30.0996 14.0452 29.7768L12.5548 28.4432C12.1636 28.8804 11.8404 29.3431 11.5956 29.8328L13.3844 30.7272ZM14.0452 29.7768C14.3031 29.4886 14.6331 29.2252 15.0486 28.9925L14.0714 27.2475C13.4869 27.5748 12.9769 27.9714 12.5548 28.4432L14.0452 29.7768ZM15.0745 28.9775C15.4796 28.7344 15.9559 28.5393 16.5125 28.4001L16.0275 26.4599C15.3041 26.6407 14.6404 26.9056 14.0455 27.2625L15.0745 28.9775ZM16.5407 28.3926C17.079 28.2413 17.6961 28.16 18.4 28.16V26.16C17.5439 26.16 16.741 26.2587 15.9993 26.4673L16.5407 28.3926ZM18.4 28.16C20.0522 28.16 21.2349 28.5751 22.0645 29.2952L23.3755 27.7848C22.0851 26.6649 20.3878 26.16 18.4 26.16V28.16ZM22.0715 29.3012C22.8925 30.0006 23.34 30.9822 23.34 32.38H25.34C25.34 30.4978 24.7075 28.9194 23.3685 27.7788L22.0715 29.3012ZM23.34 32.38V40.9H25.34V32.38H23.34ZM24.34 41.9H26.5V39.9H24.34V41.9ZM25.5 40.9V43H27.5V40.9H25.5ZM26.5 42H24.85V44H26.5V42ZM17.71 42.35C18.4041 42.35 19.0568 42.2718 19.6596 42.103L19.1204 40.177C18.7232 40.2882 18.2559 40.35 17.71 40.35V42.35ZM19.6841 42.0958C20.2715 41.915 20.8055 41.6814 21.274 41.3855L20.206 39.6945C19.9145 39.8786 19.5485 40.045 19.0959 40.1842L19.6841 42.0958ZM21.3047 41.3653C21.7858 41.0361 22.186 40.6332 22.4719 40.147L20.7481 39.133C20.634 39.3268 20.4542 39.5239 20.1753 39.7147L21.3047 41.3653ZM22.4633 40.1615C22.7737 39.6534 22.94 39.0943 22.94 38.5H20.94C20.94 38.7057 20.8863 38.9066 20.7567 39.1185L22.4633 40.1615ZM22.94 38.5V35.95H20.94V38.5H22.94ZM21.94 34.95H18.64V36.95H21.94V34.95ZM18.64 34.95C17.1512 34.95 15.8726 35.1488 14.9717 35.6948L16.0083 37.4052C16.4274 37.1512 17.2488 36.95 18.64 36.95V34.95ZM14.9717 35.6948C14.0183 36.2726 13.5 37.1737 13.5 38.29H15.5C15.5 37.8863 15.6417 37.6274 16.0083 37.4052L14.9717 35.6948ZM13.5 38.29V38.92H15.5V38.29H13.5ZM13.5 38.92C13.5 39.9834 13.8898 40.9123 14.74 41.55L15.94 39.95C15.6702 39.7477 15.5 39.4566 15.5 38.92H13.5ZM14.7723 41.5732C15.5758 42.1274 16.589 42.35 17.71 42.35V40.35C16.831 40.35 16.2642 40.1726 15.9077 39.9268L14.7723 41.5732Z" fill="black"/>
</g>
</g>
</svg>
