<svg width="38" height="53" viewBox="0 0 38 53" fill="none" xmlns="http://www.w3.org/2000/svg">
<g id="lockB">
<path id="shackle" d="M19.5 4C23.6421 4 27 7.35786 27 11.5V20.5C27 20.668 26.9945 20.8347 26.9836 21H27V27H31V11.5C31 5.14873 25.8513 0 19.5 0C13.1487 0 8 5.14873 8 11.5V17H12V11.5C12 7.35786 15.3579 4 19.5 4Z" fill="black"/>
<rect id="padlock" x="1.5" y="16.5" width="35" height="35" fill="#ECABAB" stroke="black" stroke-width="3"/>
<g id="b">
<path d="M12.85 22.8H15.25V32.04H15.37C16.37 30.12 17.96 29.16 20.14 29.16C22.04 29.16 23.52 29.87 24.58 31.29C25.66 32.71 26.2 34.7 26.2 37.26C26.2 39.82 25.66 41.81 24.58 43.23C23.52 44.65 22.04 45.36 20.14 45.36C17.96 45.36 16.37 44.4 15.37 42.48H15.25V45H12.85V22.8ZM19.21 43.23C20.61 43.23 21.69 42.81 22.45 41.97C23.23 41.11 23.62 39.98 23.62 38.58V35.94C23.62 34.54 23.23 33.42 22.45 32.58C21.69 31.72 20.61 31.29 19.21 31.29C18.67 31.29 18.16 31.36 17.68 31.5C17.2 31.64 16.78 31.85 16.42 32.13C16.06 32.39 15.77 32.72 15.55 33.12C15.35 33.5 15.25 33.95 15.25 34.47V40.05C15.25 40.57 15.35 41.03 15.55 41.43C15.77 41.81 16.06 42.14 16.42 42.42C16.78 42.68 17.2 42.88 17.68 43.02C18.16 43.16 18.67 43.23 19.21 43.23Z" fill="black"/>
<path d="M12.85 22.8V21.8H11.85V22.8H12.85ZM15.25 22.8H16.25V21.8H15.25V22.8ZM15.25 32.04H14.25V33.04H15.25V32.04ZM15.37 32.04V33.04H15.9767L16.2569 32.5019L15.37 32.04ZM24.58 31.29L23.7786 31.8882L23.7841 31.8954L24.58 31.29ZM24.58 43.23L23.784 42.6246L23.7786 42.6318L24.58 43.23ZM15.37 42.48L16.2569 42.0181L15.9767 41.48H15.37V42.48ZM15.25 42.48V41.48H14.25V42.48H15.25ZM15.25 45V46H16.25V45H15.25ZM12.85 45H11.85V46H12.85V45ZM22.45 41.97L21.7093 41.2982L21.7085 41.2991L22.45 41.97ZM22.45 32.58L21.7007 33.2422L21.7088 33.2514L21.7172 33.2604L22.45 32.58ZM17.68 31.5L17.96 32.46L17.96 32.46L17.68 31.5ZM16.42 32.13L17.0055 32.9407L17.0199 32.9303L17.0339 32.9194L16.42 32.13ZM15.55 33.12L14.6738 32.6381L14.6694 32.6461L14.6651 32.6543L15.55 33.12ZM15.55 41.43L14.6556 41.8772L14.6693 41.9046L14.6846 41.931L15.55 41.43ZM16.42 42.42L15.8061 43.2094L15.8201 43.2203L15.8345 43.2307L16.42 42.42ZM17.68 43.02L17.4 43.98L17.4 43.98L17.68 43.02ZM12.85 23.8H15.25V21.8H12.85V23.8ZM14.25 22.8V32.04H16.25V22.8H14.25ZM15.25 33.04H15.37V31.04H15.25V33.04ZM16.2569 32.5019C16.6863 31.6774 17.216 31.1064 17.8294 30.7361C18.4431 30.3655 19.2002 30.16 20.14 30.16V28.16C18.8998 28.16 17.7719 28.4345 16.7956 29.0239C15.819 29.6136 15.0537 30.4826 14.4831 31.5781L16.2569 32.5019ZM20.14 30.16C21.751 30.16 22.9227 30.7416 23.7786 31.8882L25.3814 30.6918C24.1173 28.9984 22.329 28.16 20.14 28.16V30.16ZM23.7841 31.8954C24.6851 33.08 25.2 34.8266 25.2 37.26H27.2C27.2 34.5734 26.6349 32.34 25.3759 30.6846L23.7841 31.8954ZM25.2 37.26C25.2 39.6934 24.6851 41.44 23.7841 42.6246L25.3759 43.8354C26.6349 42.18 27.2 39.9466 27.2 37.26H25.2ZM23.7786 42.6318C22.9227 43.7784 21.751 44.36 20.14 44.36V46.36C22.329 46.36 24.1173 45.5216 25.3814 43.8282L23.7786 42.6318ZM20.14 44.36C19.2002 44.36 18.4431 44.1545 17.8294 43.7839C17.216 43.4136 16.6863 42.8426 16.2569 42.0181L14.4831 42.9419C15.0537 44.0374 15.819 44.9064 16.7956 45.4961C17.7719 46.0855 18.8998 46.36 20.14 46.36V44.36ZM15.37 41.48H15.25V43.48H15.37V41.48ZM14.25 42.48V45H16.25V42.48H14.25ZM15.25 44H12.85V46H15.25V44ZM13.85 45V22.8H11.85V45H13.85ZM19.21 44.23C20.8208 44.23 22.1986 43.7384 23.1915 42.6409L21.7085 41.2991C21.1814 41.8816 20.3992 42.23 19.21 42.23V44.23ZM23.1907 42.6418C24.1705 41.5615 24.62 40.1745 24.62 38.58H22.62C22.62 39.7855 22.2895 40.6585 21.7093 41.2982L23.1907 42.6418ZM24.62 38.58V35.94H22.62V38.58H24.62ZM24.62 35.94C24.62 34.3464 24.1708 32.9635 23.1828 31.8995L21.7172 33.2604C22.2892 33.8765 22.62 34.7336 22.62 35.94H24.62ZM23.1993 31.9178C22.2085 30.7965 20.8282 30.29 19.21 30.29V32.29C20.3918 32.29 21.1715 32.6435 21.7007 33.2422L23.1993 31.9178ZM19.21 30.29C18.5828 30.29 17.9779 30.3714 17.4 30.54L17.96 32.46C18.3421 32.3486 18.7572 32.29 19.21 32.29V30.29ZM17.4 30.54C16.8106 30.7119 16.2748 30.9761 15.8061 31.3406L17.0339 32.9194C17.2852 32.7239 17.5894 32.5681 17.96 32.46L17.4 30.54ZM15.8345 31.3193C15.351 31.6685 14.9631 32.1121 14.6738 32.6381L16.4262 33.6019C16.5769 33.3279 16.769 33.1115 17.0055 32.9407L15.8345 31.3193ZM14.6651 32.6543C14.3751 33.2051 14.25 33.8216 14.25 34.47H16.25C16.25 34.0784 16.3249 33.7949 16.4349 33.5857L14.6651 32.6543ZM14.25 34.47V40.05H16.25V34.47H14.25ZM14.25 40.05C14.25 40.7 14.3757 41.3174 14.6556 41.8772L16.4444 40.9828C16.3243 40.7426 16.25 40.44 16.25 40.05H14.25ZM14.6846 41.931C14.9716 42.4267 15.3485 42.8534 15.8061 43.2094L17.0339 41.6306C16.7715 41.4266 16.5684 41.1933 16.4154 40.929L14.6846 41.931ZM15.8345 43.2307C16.2979 43.5654 16.8241 43.812 17.4 43.98L17.96 42.06C17.5759 41.948 17.2621 41.7946 17.0055 41.6093L15.8345 43.2307ZM17.4 43.98C17.9779 44.1486 18.5828 44.23 19.21 44.23V42.23C18.7572 42.23 18.3421 42.1714 17.96 42.06L17.4 43.98Z" fill="black"/>
</g>
</g>
</svg>
