<svg width="94" height="87" viewBox="0 0 94 87" fill="none" xmlns="http://www.w3.org/2000/svg">
<path d="M12.8663 76.5844L12.2447 75.801L12.8663 76.5844ZM76.6372 17.5577L75.9041 16.8775L76.6372 17.5577ZM92.9993 0.962597C92.9786 0.410699 92.5145 -0.0199553 91.9626 0.000703952L82.9689 0.337366C82.417 0.358026 81.9863 0.822175 82.007 1.37407C82.0277 1.92597 82.4918 2.35663 83.0437 2.33597L91.0381 2.03671L91.3374 10.0311C91.358 10.583 91.8222 11.0137 92.3741 10.993C92.926 10.9723 93.3566 10.5082 93.336 9.9563L92.9993 0.962597ZM1.62157 86.7834L13.4878 77.3677L12.2447 75.801L0.378425 85.2166L1.62157 86.7834ZM77.3703 18.2378L92.7331 1.68017L91.2669 0.319843L75.9041 16.8775L77.3703 18.2378ZM13.4878 77.3677C36.2505 59.3061 57.6062 39.5391 77.3703 18.2378L75.9041 16.8775C56.2091 38.1044 34.9279 57.8024 12.2447 75.801L13.4878 77.3677Z" fill="black"/>
</svg>
