<svg width="37" height="79" viewBox="0 0 37 79" fill="none" xmlns="http://www.w3.org/2000/svg">
<path d="M8.69746 11.3417L7.7041 11.4567L8.69746 11.3417ZM8.12108 0.216255C7.68823 -0.126758 7.05927 -0.0539312 6.71625 0.37892L1.12652 7.43263C0.783506 7.86548 0.856333 8.49445 1.28918 8.83746C1.72203 9.18047 2.351 9.10765 2.69401 8.6748L7.66266 2.40483L13.9326 7.37348C14.3655 7.7165 14.9944 7.64367 15.3375 7.21082C15.6805 6.77797 15.6076 6.149 15.1748 5.80599L8.12108 0.216255ZM9.69082 11.2267L8.49336 0.88498L6.50664 1.11502L7.7041 11.4567L9.69082 11.2267ZM36.7886 77.3851C21.8584 58.2355 12.4838 35.3476 9.69082 11.2267L7.7041 11.4567C10.5393 35.9422 20.0555 59.1758 35.2114 78.6149L36.7886 77.3851Z" fill="black"/>
</svg>
